<svg width="148" height="184" viewBox="0 0 148 184" fill="none" xmlns="http://www.w3.org/2000/svg">
<path fill-rule="evenodd" clip-rule="evenodd" d="M68.2707 0.229209C32.5118 3.50609 5.48858 29.0331 0.544673 64.2053C-0.140384 69.0757 -0.199071 178.01 0.481794 179.816C0.988401 181.16 2.23755 182.607 3.47772 183.285C4.56758 183.881 142.316 184.021 143.9 183.427C145.358 182.881 146.927 181.275 147.408 179.838C147.926 178.291 147.876 67.7341 147.356 64.3675C143.466 39.1976 129.913 19.8079 108.272 8.45438C96.5838 2.32189 80.8149 -0.92052 68.2707 0.229209ZM85.0378 7.78593C114.004 12.72 135.063 34.0057 140.309 63.6545C140.796 66.4002 141.065 171.182 140.59 172.935C140.19 174.412 138.234 176.266 136.553 176.76C134.595 177.335 13.2416 177.347 11.2918 176.772C9.71509 176.308 8.25036 175.022 7.51441 173.458L6.9557 172.27L6.95331 120.995C6.95091 64.0009 6.89881 66.0199 8.54678 58.6783C14.8141 30.7591 38.3264 10.1733 67.4323 7.12402C70.8007 6.77108 81.4245 7.17037 85.0378 7.78593ZM67.5521 8.54172C67.2227 8.59817 65.4981 8.86377 63.7196 9.13233C35.4281 13.3985 13.3248 35.5452 8.948 64.0116C8.25695 68.5071 8.15575 171.336 8.8414 172.923C9.33903 174.075 10.4043 175.01 11.7176 175.446C12.8272 175.814 134.788 175.832 136.124 175.464C137.352 175.125 138.582 174.001 139.044 172.793C139.391 171.888 139.42 166.866 139.358 118.913L139.289 66.0312L138.624 62.4661C133.423 34.5785 112.593 13.9891 84.7252 9.18938C81.2424 8.58985 69.7881 8.15789 67.5521 8.54172ZM80.1274 12.9172C108.608 16.0735 130.509 36.6034 135.016 64.3675C135.635 68.1809 135.822 168.38 135.213 169.55C134.265 171.368 140.548 171.198 73.9476 171.2C8.41145 171.2 13.744 171.332 12.717 169.683L12.2092 168.868L12.2894 117.806L12.3697 66.7442L12.9865 63.4168C17.1968 40.6967 32.2531 23.3319 54.3779 15.6796C57.4631 14.6124 64.119 13.2494 68.2707 12.834C70.2043 12.6409 78.1351 12.6962 80.1274 12.9172ZM85.0749 55.9142C84.2605 57.0823 83.694 58.0983 83.815 58.1726C84.018 58.2974 92.9423 54.1085 92.9423 53.8886C92.9423 53.8351 91.5051 53.7912 89.7488 53.7912H86.5552L85.0749 55.9142ZM48.1501 59.6824C48.1501 59.8078 48.6633 59.9593 49.2903 60.0187C50.7233 60.1554 51.679 60.6141 52.3204 61.4733C53.0976 62.5143 53.2204 78.4275 52.4605 79.6515C51.888 80.5736 50.3376 81.3484 49.0484 81.3556C48.5543 81.3585 48.1501 81.4679 48.1501 81.5986C48.1501 81.7519 50.8251 81.8363 55.6953 81.8363C60.5656 81.8363 63.2405 81.7519 63.2405 81.5986C63.2405 81.4679 62.7244 81.3609 62.0938 81.3609C58.8859 81.3609 57.9367 79.9468 58.0266 75.3003L58.0906 71.9729L63.1208 71.8363C70.0456 71.6479 72.6583 70.7222 73.9937 67.9848C75.644 64.6028 73.7302 61.32 69.3486 60.0175C67.9192 59.5927 48.1501 59.2802 48.1501 59.6824ZM73.5403 59.6996C73.5403 59.8125 74.1044 59.9706 74.7943 60.052C78.0339 60.4323 78.2112 60.9831 78.2112 70.6657C78.2112 80.3484 78.0339 80.8992 74.7943 81.2795C71.4175 81.6764 74.6308 81.8363 85.9959 81.8363H98.4515V77.3205C98.4515 72.0959 98.2503 71.6895 97.1682 74.7293C95.4933 79.434 92.2159 81.3609 85.8887 81.3609H83.1216V76.3698V71.3788H84.327C87.2073 71.3788 89.4422 73.6675 89.9554 77.1423C90.0637 77.8731 90.2404 78.2712 90.4578 78.2712C90.7398 78.2712 90.7835 77.1007 90.7302 70.9628C90.6662 63.5564 90.4967 62.3568 89.914 65.1892C89.2296 68.5208 87.3463 70.4542 84.6192 70.6265L83.1216 70.721V65.3176V59.9136L86.8942 60.0247C93.1076 60.2071 95.4765 61.7876 96.8964 66.6979C97.588 69.0882 97.8461 68.3295 97.9179 63.6943L97.9832 59.4952H85.7618C79.04 59.4952 73.5403 59.5873 73.5403 59.6996ZM64.9604 60.2398C67.7808 60.8399 69.0923 62.5267 69.0947 65.5582C69.0977 69.7466 67.1233 71.1655 61.2045 71.2272L58.0906 71.2599L58.026 65.9177C57.9906 62.9795 58.014 60.4394 58.0787 60.273C58.2302 59.8809 63.1627 59.8571 64.9604 60.2398ZM55.336 87.2712C55.336 87.3847 55.7756 87.5362 56.3127 87.6075C58.3996 87.8856 58.6871 88.7406 58.6871 94.6704C58.6871 100.578 58.2266 101.796 55.9947 101.8C55.6325 101.8 55.336 101.908 55.336 102.038C55.336 102.426 66.6263 102.336 68.5449 101.933C77.7818 99.9901 77.086 88.6651 67.6461 87.311C65.6137 87.0198 55.336 86.9866 55.336 87.2712ZM75.2171 87.2997C75.2171 87.4322 75.4919 87.5403 75.8279 87.5403C78.0441 87.5403 78.3309 88.3597 78.3309 94.6936C78.3309 101.035 78.0573 101.801 75.7907 101.801C75.4506 101.801 75.253 101.904 75.3368 102.038C75.4308 102.189 78.4531 102.276 83.615 102.276H91.7447V99.1386C91.7447 95.8689 91.6351 95.6716 90.9069 97.6318C89.8799 100.397 87.4445 101.801 83.6767 101.801H81.6844V98.4732V95.1458H82.4269C84.1485 95.1458 85.4743 96.3995 86.0091 98.5326C86.5331 100.621 86.7145 99.6877 86.7145 94.9081C86.7145 90.4268 86.5079 89.0769 86.1055 90.9271C85.6468 93.0353 84.3917 94.4292 82.7904 94.6087L81.7113 94.7293L81.6377 91.5225C81.5383 87.1696 81.3359 87.5403 83.8144 87.5403C87.7169 87.5403 89.4925 88.5457 90.5512 91.3538C91.3309 93.4227 91.5291 93.1202 91.453 89.9765L91.3854 87.1838L83.3012 87.1214C77.9591 87.0799 75.2171 87.1405 75.2171 87.2997ZM67.0347 87.7923C70.2163 88.469 72.0151 92.4435 71.169 96.9283C70.5031 100.459 68.833 101.682 64.6777 101.682H61.9231L61.8596 94.9111C61.8243 91.1874 61.8477 88.0056 61.9118 87.8404C62.0579 87.4625 65.3406 87.4316 67.0347 87.7923ZM63.543 107.081C63.4064 107.249 62.9094 108.241 62.4393 109.287C61.9692 110.333 60.7602 113.007 59.753 115.229C58.7458 117.451 57.3996 120.427 56.7612 121.843C54.8127 126.167 53.3114 128.072 51.2706 128.816C48.8502 129.698 49.5544 129.885 54.957 129.795C58.9272 129.728 60.3123 129.42 58.4571 129.016C56.093 128.5 55.3959 126.435 56.6301 123.607L57.0193 122.716H61.892H66.7652L67.7701 124.891C69.324 128.257 68.9695 129.122 66.0353 129.129C65.025 129.131 64.6652 129.215 64.7376 129.43C64.864 129.806 77.3243 129.989 77.6962 129.62C77.9645 129.354 77.7261 129.248 76.3357 129.018C74.5015 128.715 74.1553 128.151 69.0378 117.146C64.3508 107.067 64.031 106.481 63.543 107.081ZM102.373 108.612C101.898 109.637 101.161 111.278 100.733 112.258C94.7747 125.914 93.5088 128.041 90.8189 128.915C88.8769 129.546 89.5506 129.724 94.1226 129.792C98.5341 129.857 99.7845 129.663 98.3108 129.141C95.673 128.208 95.0352 126.557 96.2544 123.822L96.7478 122.716H101.568H106.387L107.245 124.557C108.872 128.048 108.629 128.884 105.922 129.115C105.039 129.19 104.347 129.358 104.38 129.489C104.475 129.866 117.188 129.808 117.315 129.43C117.38 129.234 117.159 129.133 116.668 129.133C114.273 129.133 114.219 129.053 108.994 117.813C103.04 105.003 103.651 105.85 102.373 108.612ZM30.4836 107.564C30.5381 107.727 31.1357 107.917 31.8112 107.986C34.87 108.295 35.0778 108.885 35.1742 117.512C35.2873 127.708 34.8065 129.133 31.2513 129.133C30.6644 129.133 30.4171 129.228 30.4848 129.43C30.6123 129.809 45.2404 129.868 45.3357 129.489C45.3686 129.358 44.6494 129.178 43.7374 129.089C40.4678 128.768 40.0067 127.93 40.0067 122.3L40.0061 118.2L41.0241 118.201C43.6038 118.205 45.6913 119.861 46.2524 122.349C46.5483 123.661 46.8429 124.332 47.0357 124.134C47.3255 123.837 47.2896 111.219 46.9992 111.398C46.8932 111.462 46.5495 112.329 46.2357 113.323C45.2039 116.587 43.6631 117.697 40.4253 117.511C39.9426 117.483 39.7624 108.102 40.2414 107.94C40.3708 107.897 42.284 107.918 44.4931 107.988C50.7424 108.184 53.0144 109.82 54.3677 115.094C55.1049 117.969 55.336 117.24 55.336 112.04V107.267H42.8607C32.9873 107.267 30.4057 107.329 30.4836 107.564ZM70.0067 107.564C70.0612 107.727 70.5283 107.921 71.045 107.993C73.3296 108.314 73.4823 108.552 78.9052 120.281C81.5622 126.027 83.6258 130.202 83.8084 130.202C84.0893 130.202 85.4654 127.383 88.7379 120.101C93.2501 110.063 94.0358 108.846 96.4682 108.143C98.7833 107.473 98.0108 107.267 93.1818 107.267C88.4349 107.267 87.7277 107.437 89.6955 108.109C92.7824 109.162 92.5495 110.68 87.7607 120.745C87.3121 121.688 86.7277 122.962 86.4618 123.577C86.1887 124.21 85.8923 124.601 85.7791 124.478C85.5911 124.273 81.6628 115.806 80.0364 112.099C78.7627 109.197 79.1537 107.98 81.3586 107.98C81.9113 107.98 82.5341 107.915 82.7425 107.836C83.9012 107.395 82.5042 107.267 76.5147 107.267C71.3355 107.267 69.9288 107.331 70.0067 107.564ZM64.2334 117.244C65.3969 119.777 66.2988 121.899 66.2377 121.96C66.1077 122.089 57.6649 122.016 57.5325 121.884C57.4828 121.836 57.7619 121.12 58.1517 120.295C58.5416 119.47 59.4847 117.373 60.247 115.637C61.0099 113.9 61.7423 112.515 61.8758 112.559C62.0088 112.603 63.0693 114.711 64.2334 117.244ZM103.232 115.883C104.076 117.745 105.031 119.834 105.354 120.525C106.1 122.121 106.394 122.003 101.555 122.044C96.9335 122.084 96.9784 122.101 97.6976 120.535C97.9569 119.969 98.6 118.544 99.1264 117.368C101.117 112.92 101.325 112.496 101.509 112.496C101.612 112.496 102.388 114.02 103.232 115.883ZM33.419 146.676C28.1116 149.934 23.8995 161.456 28.0158 161.456C28.7536 161.456 31.0824 159.549 32.1339 158.084C33.1424 156.678 32.3088 157.169 30.4938 159.049C28.4949 161.121 28.0266 161.322 27.4026 160.377C26.0864 158.383 28.5793 152.125 32.1028 148.576C35.57 145.086 36.0311 146.883 32.7699 151.177C32.1495 151.994 31.7405 152.662 31.8609 152.662C32.2333 152.662 34.4783 149.76 35.1448 148.416C36.073 146.546 35.149 145.614 33.419 146.676ZM72.1768 147.73C70.0654 149.897 68.8659 153.281 68.5958 157.831C68.4569 160.169 68.4845 160.505 68.8132 160.505C69.0198 160.505 69.2246 160.411 69.2689 160.297C69.3126 160.182 70.1306 159.699 71.0864 159.223C73.0152 158.264 74.2589 156.889 74.2589 155.716C74.2589 154.331 72.4942 155.183 70.7522 157.409C69.345 159.207 69.1707 159.2 69.348 157.356C69.627 154.463 69.6624 154.377 71.3067 152.599C72.1714 151.664 73.1481 150.476 73.4775 149.958C75.244 147.181 74.2955 145.556 72.1768 147.73ZM73.7799 147.761C73.7799 148.723 73.1355 149.924 71.5768 151.865C69.8288 154.043 69.545 153.837 70.6642 151.201C71.9343 148.212 73.7799 146.174 73.7799 147.761ZM56.0546 150.105C55.6091 150.831 54.9474 153.368 54.8031 154.904C54.7516 155.448 54.5845 155.642 54.0456 155.784C53.6653 155.884 52.6623 156.673 51.8167 157.537C49.3957 160.011 48.2082 159.488 49.352 156.453C50.0712 154.546 49.7945 154.119 48.9747 155.871C47.1525 159.76 44.6512 160.335 45.8405 156.591C46.6219 154.131 45.4261 153.26 43.8518 155.142C43.4038 155.677 43.12 155.601 43.12 154.945C43.12 153.475 41.6122 154.15 40.2456 156.231L39.4073 157.508L39.2875 155.976C39.1647 154.409 38.9947 154.496 38.6743 156.289C38.5863 156.781 38.4138 157.245 38.2905 157.32C38.1557 157.403 38.1677 157.578 38.3204 157.761C38.4605 157.928 38.5462 158.308 38.512 158.606C38.4773 158.903 38.5839 159.193 38.7486 159.251C38.9132 159.309 39.048 159.201 39.048 159.011C39.048 158.821 39.5684 157.876 40.2043 156.911C42.0667 154.087 42.7014 153.849 42.2134 156.159C41.8295 157.973 41.9158 157.969 43.6919 156.083C45.441 154.225 45.9471 154.343 45.1919 156.434C44.2518 159.036 45.2003 160.327 47.1932 159.159C47.8214 158.791 47.8944 158.791 48.2651 159.159C48.7579 159.648 49.8203 159.67 50.44 159.206C51.0676 158.734 51.264 158.756 51.264 159.297C51.264 160.434 52.3305 160.006 53.6605 158.336C54.6468 157.098 54.6989 157.108 54.9594 158.591C55.1271 159.545 55.745 160.576 56.0403 160.395C56.1522 160.326 56.0397 159.873 55.79 159.387C55.0779 158.001 55.1917 156.37 56.1451 154.3C57.0792 152.27 57.6325 150.279 57.417 149.721C57.1768 149.101 56.5642 149.273 56.0546 150.105ZM99.7809 150.597C98.3521 152.096 96.8688 154.73 96.6347 156.181C96.349 157.953 93.5034 159.95 93.0255 158.713C92.9112 158.418 93.3806 156.7 94.0783 154.86C94.4034 154.005 93.6639 154.731 93.1914 155.732C92.7124 156.746 90.4763 158.704 90.2212 158.333C88.7583 156.206 89.211 154.218 90.8279 155.67C91.2279 156.029 91.2656 156.03 91.2656 155.678C91.2656 155.262 90.5757 154.801 89.953 154.801C89.3194 154.801 88.3912 155.901 88.3912 156.651C88.3912 157.371 86.7169 158.841 85.8971 158.841C85.4294 158.841 85.4294 158.84 85.9001 157.412C86.4073 155.872 86.3025 155.679 84.9186 155.598C83.612 155.524 82.0844 156.083 81.3478 156.906C80.4292 157.932 79.6747 157.471 79.658 155.872C79.6424 154.357 78.7986 154.538 77.2692 156.386C75.8183 158.137 75.7985 158.144 75.6063 156.954C75.3434 155.322 75.053 155.696 74.8979 157.866C74.8152 159.021 74.6745 160.155 74.5847 160.386C74.4721 160.679 74.5206 160.775 74.7428 160.702C75.0775 160.591 75.1686 160.445 75.7566 159.079C76.2746 157.877 78.3088 155.276 78.7316 155.276C79.0196 155.276 79.0591 155.469 78.9286 156.235C78.7387 157.35 79.0615 157.891 79.9172 157.891C80.3574 157.891 80.4867 158.019 80.4867 158.456C80.4867 160.004 82.0562 159.651 83.9162 157.685C85.4851 156.026 85.7893 156.017 85.1318 157.648C84.3869 159.496 85.572 159.93 87.408 158.482C88.2062 157.853 88.5367 157.714 88.7757 157.912C89.4092 158.433 89.4182 159.1 88.8008 159.755C87.9852 160.62 87.8068 161.317 88.2804 161.787C89.1966 162.696 90.3194 161.822 90.4895 160.067C90.644 158.466 92.2237 156.982 92.2237 158.437C92.2237 159.929 94.2974 159.9 95.6747 158.39C96.3161 157.688 96.4544 157.757 96.6029 158.86C96.7395 159.87 97.3365 160.743 97.8898 160.743C98.3126 160.743 98.2994 160.659 97.7335 159.739C97.3874 159.175 97.2556 158.54 97.2544 157.434L97.2539 155.907L99.0264 154.286C100.932 152.544 102.121 150.823 102 149.982C101.859 149.005 101.097 149.216 99.7809 150.597ZM57.0128 150.587C57.0128 151.648 55.3893 155.407 55.354 154.428C55.2989 152.919 56.2954 149.572 56.8008 149.572C56.9175 149.572 57.0128 150.029 57.0128 150.587ZM101.565 150.239C101.565 151.215 98.0275 155.559 97.7952 154.868C97.6539 154.447 98.6443 152.678 99.8599 151.177C100.986 149.787 101.565 149.468 101.565 150.239ZM105.899 152.383C105.576 152.983 105.564 153.375 105.869 153.375C106.255 153.375 106.672 152.405 106.4 152.136C106.24 151.977 106.073 152.059 105.899 152.383ZM50.4197 152.68C50.3334 152.951 50.3233 153.234 50.3981 153.308C50.5975 153.506 51.264 152.895 51.264 152.514C51.264 152 50.5951 152.131 50.4197 152.68ZM94.6082 152.682C94.2986 153.256 94.4394 153.494 94.9681 153.293C95.3675 153.141 95.4867 152.187 95.1065 152.187C94.9795 152.187 94.755 152.409 94.6082 152.682ZM104.245 155.958C103.139 158.242 101.751 159.444 100.573 159.139C100.099 159.016 99.9264 157.891 100.382 157.891C100.522 157.891 100.564 157.776 100.477 157.635C100.288 157.333 101.27 156.227 101.727 156.227C102.23 156.227 102.097 156.876 101.506 157.302C101.04 157.638 101.029 157.68 101.42 157.613C101.988 157.515 102.877 156.365 102.658 156.013C102.094 155.108 99.7821 156.589 99.5096 158.03C99.2198 159.563 100.273 159.976 102.104 159.049L103.103 158.543L103.442 159.049C103.976 159.849 105.15 159.714 106.488 158.701L107.615 157.848L107.442 158.998C107.348 159.631 107.253 160.256 107.232 160.386C107.133 161.008 107.911 160.537 108.043 159.896C108.182 159.22 109.559 157.055 110.639 155.811C111.389 154.948 111.703 155.125 111.524 156.309C111.345 157.493 111.732 158.017 112.654 157.842C113.135 157.751 113.195 157.819 113.114 158.362C112.858 160.095 114.582 159.748 116.565 157.668C117.988 156.174 118.328 156.194 117.734 157.739C117.258 158.976 117.383 159.317 118.315 159.317C118.979 159.317 121.446 157.582 121.446 157.115C121.446 156.996 120.893 157.336 120.218 157.871C118.742 159.037 118.208 159.131 118.432 158.188C118.518 157.828 118.65 157.09 118.728 156.547L118.868 155.56L117.343 155.612C115.714 155.667 114.997 155.936 113.985 156.872C112.985 157.796 112.478 157.534 112.392 156.046C112.274 154.03 110.994 154.509 109.138 157.265C108.485 158.235 108.42 158.194 108.16 156.643C107.979 155.56 107.554 155.461 107.554 156.501C107.554 157.493 105.846 159.137 104.927 159.03C104.106 158.935 104.042 158.251 104.689 156.49C105.421 154.499 105.124 154.143 104.245 155.958ZM35.6149 156.005C35.1957 156.598 35.3478 157.314 35.9868 157.758C36.785 158.313 35.3215 160.541 34.3915 160.187C33.8454 159.979 33.9065 158.088 34.4969 156.94C35.1335 155.702 35.1011 155.554 34.346 156.245C32.3789 158.045 32.7094 161.408 34.7831 160.691C35.6688 160.384 37.0036 158.352 37.0701 157.208C37.1587 155.697 36.3209 155.004 35.6149 156.005ZM58.7817 155.975C57.0391 156.749 55.9912 158.574 56.872 159.3C57.4152 159.746 58.8098 159.02 60.1308 157.602C61.4339 156.202 61.8255 156.225 61.2554 157.666C60.3225 160.022 62.1597 159.881 64.7855 157.393C65.4113 156.8 64.3861 157.279 63.4052 158.037C61.9764 159.141 61.3794 159.026 61.9177 157.748C62.8088 155.632 61.3764 154.822 58.7817 155.975ZM73.5397 155.93C73.538 156.689 72.6265 157.845 71.5223 158.487C69.7869 159.496 69.7809 159.078 71.5049 157.23C73.1565 155.461 73.5409 155.215 73.5397 155.93ZM36.5072 156.365C36.7503 156.994 36.6712 157.415 36.3095 157.415C36.1209 157.415 35.8982 157.203 35.8149 156.942C35.5556 156.132 36.2071 155.589 36.5072 156.365ZM54.6175 156.206C54.6175 156.461 52.8425 158.727 52.4569 158.963C51.5239 159.535 52.3455 157.517 53.4054 156.632C54.1953 155.973 54.6175 155.824 54.6175 156.206ZM60.6057 156.175C60.6057 156.594 58.1877 158.841 57.7367 158.841C56.7175 158.841 57.3954 157.282 58.7775 156.445C59.5326 155.988 60.6057 155.83 60.6057 156.175ZM84.5587 156.16C84.5587 156.542 82.0275 158.841 81.6065 158.841C81.1083 158.841 81.2005 157.877 81.7634 157.2C82.4623 156.36 84.5587 155.58 84.5587 156.16ZM117.095 156.216C116.93 156.683 114.68 158.841 114.357 158.841C113.81 158.841 113.952 157.56 114.56 157.014C115.561 156.114 117.327 155.558 117.095 156.216ZM89.8284 160.014C89.8284 160.462 89.3547 161.456 89.1416 161.456C88.7326 161.456 88.6649 160.8 89.0218 160.295C89.3877 159.776 89.8284 159.623 89.8284 160.014Z" fill="#0E3D32"/>
<path fill-rule="evenodd" clip-rule="evenodd" d="M67.4324 7.12404C38.3265 10.1734 14.8142 30.7592 8.54686 58.6783C6.89889 66.0199 6.95099 64.0009 6.95338 120.995L6.95578 172.27L7.51449 173.458C8.25044 175.022 9.71517 176.308 11.2919 176.772C13.2417 177.347 134.596 177.335 136.553 176.76C138.234 176.266 140.19 174.412 140.59 172.935C141.065 171.182 140.796 66.4002 140.31 63.6545C135.506 36.5132 117.946 16.7449 92.0867 9.37003C85.4145 7.46688 74.0452 6.43123 67.4324 7.12404ZM84.7253 9.1894C112.593 13.9891 133.423 34.5785 138.624 62.4661L139.289 66.0312L139.358 118.913C139.42 166.866 139.391 171.888 139.044 172.793C138.582 174.001 137.352 175.125 136.124 175.464C134.788 175.832 12.8273 175.814 11.7176 175.446C10.4044 175.01 9.33911 174.075 8.84148 172.923C8.15583 171.336 8.25703 68.5071 8.94807 64.0116C13.3249 35.5452 35.4282 13.3985 63.7197 9.13236C65.4982 8.86379 67.2228 8.59819 67.5522 8.54175C69.7882 8.15791 81.2425 8.58988 84.7253 9.1894ZM69.5313 12.8448C69.896 12.8994 70.4349 12.8982 70.7289 12.8418C71.0236 12.7853 70.7259 12.7402 70.0672 12.742C69.4085 12.7438 69.1672 12.7901 69.5313 12.8448ZM77.1963 12.8448C77.5609 12.8994 78.0999 12.8982 78.3939 12.8418C78.6885 12.7853 78.3909 12.7402 77.7322 12.742C77.0735 12.7438 76.8322 12.7901 77.1963 12.8448ZM126.117 21.468C127.165 22.5138 128.076 23.3694 128.142 23.3694C128.208 23.3694 127.405 22.5138 126.357 21.468C125.309 20.4223 124.398 19.5667 124.332 19.5667C124.266 19.5667 125.069 20.4223 126.117 21.468ZM21.1917 21.7651L20.2449 22.7752L21.2629 21.8358C22.2097 20.9618 22.3911 20.755 22.2097 20.755C22.1707 20.755 21.7126 21.2096 21.1917 21.7651ZM93.3496 25.736C91.2058 27.6041 91.4986 32.14 94.0418 36.4454C94.7053 37.569 95.8167 40.0194 95.8167 40.3593C95.8167 41.4686 90.8669 37.7681 86.9541 33.7336C84.3941 31.0943 82.5288 30.1014 79.3269 29.6748C78.0454 29.5043 78.1011 29.6991 79.6886 30.9386C80.3688 31.4704 81.2252 32.3105 81.5904 32.8067C83.2827 35.102 86.293 37.0295 89.8848 38.118C90.6399 38.3474 91.6639 38.8512 92.1603 39.2386C92.6561 39.6266 93.8855 40.3462 94.8928 40.8382C96.6856 41.7146 99.4097 43.6504 99.4097 44.0485C99.4097 44.159 98.0186 44.1881 96.318 44.1133C93.4023 43.9849 93.1077 44.014 91.1513 44.6326C89.2003 45.2487 88.4787 45.2939 87.3733 44.8696C86.7463 44.629 86.8314 45.5155 87.4931 46.1174C89.7794 48.1958 95.3479 48.4371 99.9031 46.6551C101.253 46.1275 101.507 46.1798 102.164 47.118C102.428 47.4941 103.587 49.0009 104.739 50.4662C106.975 53.3075 107.332 54.0556 106.176 53.4691C105.096 52.9213 104.023 52.7811 100.37 52.7092C98.4582 52.6712 96.679 52.6052 96.4156 52.5624C94.7951 52.2974 97.6485 55.5256 100.033 56.6545C102.436 57.7924 104.258 58.1566 106.476 57.9421C107.53 57.8399 108.806 57.7306 109.312 57.6985C112.64 57.4899 114.21 52.0592 112.592 46.3616C112.192 44.9546 111.865 43.6444 111.865 43.4501C111.865 42.1453 109.762 44.0687 108.747 46.3022C108.139 47.6397 107.985 51.8583 108.497 53.1703C109.247 55.0948 108.32 54.1994 104.908 49.7068C101.792 45.604 101.8 45.6195 102.577 45.2065C105.197 43.8156 106.418 41.7348 106.606 38.3426C106.69 36.8394 106.828 35.449 106.914 35.2529C107.409 34.1216 104.71 33.6599 102.885 34.5643C100.373 35.8096 99.3061 37.6296 99.3133 40.6599C99.3187 42.9689 99.2648 42.9932 97.6899 41.3884C94.9616 38.6094 94.3891 36.4644 95.0107 31.3551C95.1065 30.5649 95.0155 29.7425 94.7275 28.7996C94.3628 27.6035 94.3466 27.2791 94.6107 26.4841C95.1275 24.9303 94.6203 24.6296 93.3496 25.736ZM51.103 27.9445C51.112 29.023 50.9856 30.3949 50.8222 30.9933C50.5856 31.8578 50.585 32.2963 50.8204 33.1323C51.6575 36.1055 50.6114 39.6599 48.1328 42.26C46.5448 43.9267 46.5022 43.9154 46.5184 41.8483C46.5501 37.9029 44.1524 35.0236 40.8302 35.0176C38.8954 35.014 38.8475 35.1121 39.0223 38.6991C39.2079 42.506 40.3894 44.6135 43.159 46.077C43.9674 46.5042 43.8626 46.9475 42.5931 48.4715C42.0619 49.1097 40.896 50.5945 40.0026 51.771C39.1091 52.9475 38.1163 54.1524 37.7953 54.4483L37.2127 54.9873L37.4342 53.3788C37.9546 49.61 37.2797 46.733 35.3856 44.6409C34.2604 43.3985 34.1736 43.5048 33.143 47.4026C31.8963 52.1174 32.2035 54.6949 34.3203 57.2962C35.2539 58.4436 35.4162 58.5434 36.3438 58.544C36.8983 58.5446 38.151 58.6628 39.1277 58.8066C41.1841 59.1102 43.8764 58.585 46.1759 57.4329C47.5065 56.7656 50.1683 54.2131 50.0138 53.7526C49.7886 53.0829 41.0601 53.6379 39.5451 54.4174C38.3744 55.0199 38.7756 54.1459 40.8679 51.5333C41.6009 50.6183 42.6314 49.3016 43.1578 48.6076C44.389 46.9837 44.289 47.0027 46.9532 47.8785C51.2521 49.2915 55.0104 49.1418 57.6877 47.4507C58.889 46.692 59.3794 45.6843 58.4356 45.913C57.4691 46.1477 55.7733 45.976 54.4127 45.506C52.7198 44.9219 50.6353 44.7811 47.9107 45.0669L46.1142 45.2559L47.3837 44.0616C48.1245 43.3646 49.6209 42.3723 50.9767 41.6789C52.2546 41.0253 53.6109 40.2238 53.9906 39.897C54.3702 39.5702 55.0672 39.2309 55.5403 39.143C58.4123 38.6082 62.7861 35.9356 64.0844 33.9208C64.5976 33.1252 65.394 32.329 66.227 31.7805C68.2719 30.433 67.9288 30.1923 64.9269 30.8703C62.5424 31.408 61.092 32.3997 57.6057 35.875C54.0133 39.4549 50.7683 41.7324 50.1431 41.1121C49.9449 40.9154 50.4623 39.7098 51.6366 37.6296C54.3337 32.8512 54.6391 29.0093 52.5013 26.7384C51.321 25.4853 51.0839 25.6897 51.103 27.9445ZM93.2388 28.9838C93.1783 29.392 93.249 29.7996 93.3951 29.8893C93.5711 29.9974 93.661 29.7621 93.661 29.1923C93.661 28.0052 93.9969 28.3218 94.3688 29.8602C94.6251 30.9214 94.6233 31.3046 94.358 32.0693L94.037 32.995L93.8807 32.1632C93.7592 31.5191 93.7161 31.4656 93.6891 31.9255C93.6693 32.2523 93.5664 32.6564 93.4592 32.8233C92.8316 33.8055 92.11 28.7384 92.7196 27.6255L93.0328 27.0533L93.1903 27.6475C93.2771 27.9743 93.2987 28.5756 93.2388 28.9838ZM53.1911 28.9867C53.4893 29.8833 53.3845 31.5684 52.9306 33.1733C52.6624 34.1222 52.2222 34.3807 52.2222 33.5892C52.2222 33.0057 51.7498 32.9493 51.7264 33.5298C51.6899 34.4377 51.2976 32.9909 51.2916 31.9255C51.2863 30.9921 51.912 28.944 51.9635 29.7271C52.0138 30.4971 52.4618 29.9095 52.4618 29.0735C52.4618 27.8881 52.8121 27.8465 53.1911 28.9867ZM118.333 31.3314C118.779 31.7889 119.199 32.1632 119.265 32.1632C119.331 32.1632 119.019 31.7889 118.572 31.3314C118.125 30.8738 117.706 30.4995 117.64 30.4995C117.574 30.4995 117.886 30.8738 118.333 31.3314ZM84.1504 32.0378C85.6451 33.055 88.1081 35.613 87.8452 35.8744C87.7655 35.9534 87.3811 35.7924 86.9906 35.5167C86.0792 34.8726 85.7954 34.875 86.3781 35.5221C86.8326 36.0265 86.832 36.0283 86.2355 35.8518C84.2672 35.2695 81.2731 32.2773 82.3012 31.919C82.6486 31.7984 82.6066 31.7015 82.0228 31.2797L81.3347 30.7823L82.0078 30.9101C82.3779 30.9802 83.3426 31.4876 84.1504 32.0378ZM63.3604 32.4989L62.6418 33.0699L63.3346 32.9392L64.0269 32.8079L63.5837 33.553C62.7364 34.9754 61.0932 36.3426 59.7046 36.7799C58.7752 37.0729 59.1099 36.5393 60.8747 34.9184C61.8124 34.0568 62.4861 33.3533 62.3717 33.3551C62.2567 33.3569 61.2699 34.159 60.1788 35.1376C59.0878 36.1162 58.0206 36.9166 57.8069 36.9166C57.2494 36.9166 61.5292 32.7556 62.5328 32.3218C63.7963 31.7758 64.17 31.8554 63.3604 32.4989ZM82.8821 32.26C82.8821 32.3076 83.1516 32.5215 83.4809 32.7354C83.8103 32.9499 84.0798 33.0325 84.0798 32.9196C84.0798 32.8073 83.8103 32.5928 83.4809 32.4442C83.1516 32.2951 82.8821 32.2125 82.8821 32.26ZM105.478 34.6991C105.566 34.7865 105.46 35.0539 105.242 35.2933C104.798 35.7793 104.957 35.8524 105.653 35.4823C106.371 35.1008 106.347 39.859 105.624 41.342C104.918 42.7888 103.217 44.2909 102.989 43.6688C102.842 43.266 102.773 43.3016 102.374 43.9855C100.778 46.7247 98.8785 41.1578 100.328 37.9891C101.336 35.7859 104.522 33.7502 105.478 34.6991ZM42.4733 35.8821C45.0585 37.2036 46.1136 39.02 45.9477 41.8655C45.7537 45.1846 44.4806 46.6777 43.3674 44.8916C42.7769 43.9433 42.5296 43.7995 42.7674 44.5422C42.9069 44.9796 42.8686 45.0081 42.4452 44.7829C41.6434 44.3575 40.0158 42.3171 39.7714 41.4323C39.5624 40.6748 39.5121 36.2036 39.7128 36.2036C39.7595 36.2036 40.0337 36.326 40.3212 36.4757C40.8278 36.7395 40.8314 36.733 40.4254 36.279C40.1948 36.0206 40.0062 35.7378 40.0062 35.6504C40.0062 35.3367 41.7206 35.4977 42.4733 35.8821ZM41.9392 40.5013C41.9488 41.2095 42.0482 42.0027 42.1602 42.2642C42.2835 42.5518 42.3111 42.0812 42.2296 41.0758C42.0655 39.0479 41.9164 38.7526 41.9392 40.5013ZM112.225 46.9968C113.29 50.645 112.903 53.8197 111.155 55.7609L110.499 56.4899L110.587 55.6753C110.668 54.929 110.654 54.9088 110.424 55.4359C110.065 56.26 109.796 55.8583 109.24 53.6664C108.406 50.3806 108.64 47.26 109.854 45.4876L110.428 44.6492L110.466 45.8334C110.496 46.752 110.524 46.831 110.593 46.1857C110.857 43.7122 111.335 43.9499 112.225 46.9968ZM98.8037 44.9314C99.4145 45.2707 99.039 45.4341 96.4725 45.9439C95.2556 46.1857 94.4969 46.3925 94.7868 46.4032C95.0766 46.4145 95.8479 46.3099 96.5006 46.1709C97.1527 46.0318 98.1552 45.9528 98.7276 45.995L99.769 46.0711L98.0923 46.6165C95.2461 47.5411 89.8602 47.5719 90.4279 46.6599C90.5099 46.528 90.4087 46.3676 90.2027 46.3028C88.9997 45.9267 89.0033 45.8922 90.3075 45.4323C91.0321 45.1768 91.9483 44.8714 92.3436 44.7538C93.261 44.4805 98.2378 44.6171 98.8037 44.9314ZM52.8211 45.5844C53.4798 45.7734 54.5037 46.0538 55.0966 46.2083C56.9619 46.6926 56.8793 46.651 56.5763 46.9516C56.4242 47.1026 55.1936 47.2963 53.8414 47.3818L51.3839 47.5375L53.6594 47.5815C55.5637 47.6189 55.8571 47.6736 55.4559 47.916C54.3942 48.5583 48.6706 48.115 46.9801 47.26C46.4094 46.9712 46.4094 46.9706 47.2196 46.7769L48.0304 46.5826L46.9526 46.4293C45.7262 46.2553 45.9112 46.115 48.0304 45.6141C49.909 45.1703 51.3467 45.1614 52.8211 45.5844ZM35.0078 46.364L35.0389 47.2553L35.1922 46.4234L35.3449 45.5916L35.9869 46.5422C37.2055 48.3462 37.4139 50.6949 36.6569 54.0924C36.0252 56.929 35.8455 57.2142 35.3545 56.1596L34.9718 55.336L35.0766 56.049C35.1347 56.4412 35.2563 56.976 35.3473 57.2374C35.7114 58.2861 33.9904 55.9902 33.5586 54.8512C32.628 52.399 32.6754 50.9385 33.8071 47.077C34.3461 45.2404 34.9551 44.8786 35.0078 46.364ZM91.5651 46.5939C91.9274 46.648 92.5202 46.648 92.8825 46.5939C93.2448 46.5393 92.9484 46.4947 92.2238 46.4947C91.4992 46.4947 91.2028 46.5393 91.5651 46.5939ZM105.303 53.6979C107.024 54.4115 108.737 56.1554 107.733 56.1732C107.569 56.1762 107.699 56.3806 108.024 56.6284L108.614 57.0782L107.713 57.2457C106.137 57.5392 102.757 57.2315 101.258 56.6581C99.0079 55.7971 96.9629 54.0289 98.2174 54.0289C98.5755 54.0289 98.7001 53.9201 98.6103 53.6872C98.3396 52.9873 103.609 52.9962 105.303 53.6979ZM89.7782 53.7312C91.7309 53.7763 92.907 53.8934 92.8202 54.033C92.7412 54.1596 92.8424 54.1982 93.0484 54.1204C94.0257 53.7478 92.8555 53.5583 89.874 53.6052L86.5948 53.6575L89.7782 53.7312ZM46.952 54.1833L47.7298 54.3378L47.1615 54.6504C46.6028 54.9576 46.607 54.9629 47.4166 54.9712L48.24 54.9795L47.5364 55.7145C45.6735 57.6605 41.0613 58.8773 38.2259 58.1708C37.5223 57.9956 37.4234 57.6504 38.0127 57.4258C38.3834 57.2849 38.3822 57.2618 37.9977 57.1281C37.4833 56.9492 38.1001 56.0562 39.3439 55.1774C40.6014 54.2891 44.7525 53.7466 46.952 54.1833ZM105.398 55.9183C105.996 56.1203 107.483 56.2463 107.294 56.0794C107.239 56.0306 106.655 55.9296 105.997 55.8542C105.189 55.7615 104.994 55.7823 105.398 55.9183ZM48.0706 59.4162C47.9825 59.503 47.9125 59.6902 47.9143 59.8322C47.9167 59.9867 47.9927 59.9724 48.1065 59.7953C48.2484 59.5731 50.3611 59.4858 56.7853 59.4359L65.2766 59.3699L56.7535 59.314C52.0653 59.2832 48.158 59.3289 48.0706 59.4162ZM73.4608 59.4162C73.3727 59.503 73.3027 59.6902 73.3045 59.8322C73.3069 59.9861 73.3835 59.9712 73.4967 59.7947C73.6422 59.5678 76.4699 59.4852 85.769 59.4359L97.8528 59.3717L85.7367 59.3146C79.0724 59.2831 73.5482 59.3289 73.4608 59.4162ZM74.0794 60.1346C74.3099 60.194 74.6872 60.194 74.9177 60.1346C75.1483 60.0746 74.9596 60.0259 74.4985 60.0259C74.0374 60.0259 73.8488 60.0746 74.0794 60.1346ZM23.6331 61.0288C23.2846 61.3491 22.9995 61.689 22.9995 61.7834C22.9995 61.8773 23.2684 61.7044 23.5965 61.3984C24.4924 60.563 25.3739 60.6872 27.2392 61.9106C28.1351 62.4982 29.2183 63.1174 29.6465 63.2861C30.492 63.62 30.628 63.8827 30.0657 64.0972C29.6357 64.2606 29.5902 65.2267 29.9938 65.6272C30.5028 66.1322 31.0837 65.9332 31.5909 65.0805C32.1729 64.1013 32.2376 64.0912 33.5161 64.768C34.5371 65.3087 34.5754 65.374 34.5042 66.4477C34.4742 66.9029 34.694 67.3324 35.2281 67.863C36.1521 68.7793 37.0228 72.3295 36.3234 72.3295C36.2743 72.3295 35.7755 72.169 35.2156 71.973C33.1838 71.2617 31.7412 71.626 30.5729 73.1453C30.2166 73.6099 29.6327 74.0585 29.2764 74.1435C27.5087 74.5636 26.1787 75.7745 25.1337 77.9147C23.9702 80.2962 24.2002 81.235 25.7984 80.6307C26.314 80.4358 26.9416 80.4732 28.4626 80.7893C30.4878 81.2106 30.8759 81.191 34.579 80.4804L35.2605 80.3496L35.0886 81.9842C34.8802 83.9705 34.8778 83.9753 34.0149 83.9753C31.9107 83.9753 30.5076 86.4144 31.1597 88.9402C31.3879 89.8214 31.3927 90.3401 31.1831 91.1684C30.9579 92.0549 30.9753 92.4043 31.2795 93.128C31.5472 93.7626 31.6053 94.3674 31.4891 95.2902C31.3004 96.7875 31.5064 96.8974 32.7436 95.961C34.0527 94.9705 34.2724 95.1803 34.8766 97.9978C35.4359 100.608 36.4563 103.227 36.915 103.227C37.0731 103.227 37.1156 103.057 37.018 102.811C36.1006 100.495 35.4551 97.794 35.4551 96.2729V94.9735L36.9659 94.2355C38.6912 93.3924 39.9469 91.9123 40.1762 90.4512C40.2529 89.9616 40.5158 89.2765 40.7601 88.9295C42.3835 86.6224 40.4134 83.9812 37.0641 83.9765C35.915 83.9747 35.733 83.5481 36.3228 82.2391C37.3558 79.9474 40.0583 78.2587 41.3499 79.0983C41.956 79.4922 41.9458 79.5737 41.1487 80.661C40.4104 81.6687 41.1386 82.6158 42.1248 81.9301C42.3985 81.7406 42.6967 81.188 42.7889 80.7032C42.8805 80.2177 43.1518 79.3918 43.3919 78.8678C43.8518 77.8624 43.9854 76.2498 43.6261 76.03C43.5093 75.9581 43.4183 76.0324 43.4243 76.194C43.5045 78.4085 42.9219 79.1756 41.5823 78.6206C40.2313 78.0603 38.9007 78.481 37.23 79.9955C35.9725 81.1363 35.9342 81.1524 35.9342 80.5469C35.9342 80.0662 36.1701 79.7816 36.9623 79.3069C39.4097 77.8404 39.972 74.6081 37.9702 73.5172C35.939 72.4103 38.4864 69.2398 41.4068 69.2398C42.6997 69.2398 43.0099 69.8107 42.0811 70.4822C41.2439 71.0876 41.196 72.0918 42.0051 72.0918C42.314 72.0918 42.762 71.8779 43.0003 71.6165C43.2877 71.3015 43.7381 71.1411 44.3351 71.1411C45.3214 71.1411 45.9944 70.9522 45.9944 70.6753C45.9944 70.5778 45.4627 70.5487 44.8124 70.6105C43.6369 70.7228 43.6279 70.7181 43.1949 69.803C42.4847 68.3027 39.2008 68.4572 37.8648 70.0544C37.236 70.8066 36.6528 70.361 36.6528 69.1286C36.6528 68.6426 36.8025 68.563 37.9875 68.4162C38.7211 68.3253 39.7104 68.0894 40.1846 67.8927C40.7607 67.6545 41.611 67.5618 42.7422 67.6153L44.4375 67.6949L44.3614 66.2689C44.2219 63.6604 42.9542 62.8179 40.078 63.4228C39.1822 63.6111 37.8833 63.7668 37.1917 63.7692C36.2438 63.7721 35.8126 63.894 35.4389 64.2647L34.9437 64.7561L33.5826 64.2291C29.4992 62.6486 28.5195 62.2113 27.1757 61.3693C25.4445 60.2843 24.5379 60.197 23.6331 61.0288ZM58.0841 66.0312L58.0907 71.2599L60.4267 71.2736L62.7628 71.2873L60.4914 71.2059L58.2195 71.1239L58.1482 65.9635L58.0769 60.8025L58.0841 66.0312ZM120.728 61.6777C119.513 62.5131 117.416 63.4881 115.458 64.1287C114.734 64.3657 113.9 64.7145 113.606 64.904C113.117 65.219 113.007 65.1952 112.33 64.6295C111.687 64.0924 111.369 64.011 109.917 64.011C108.998 64.011 107.759 63.8892 107.163 63.7407C104.809 63.1524 103.819 63.9219 103.592 66.5131L103.452 68.1162L104.889 67.9545C106.072 67.822 106.651 67.8987 108.164 68.3889C109.175 68.7169 110.071 68.9759 110.155 68.9652C111.005 68.8577 111.18 69.0223 111.021 69.7745C110.774 70.9367 110.642 70.9581 109.33 70.0508C107.121 68.5232 104.44 68.8102 104.44 70.5743C104.44 70.9854 103.427 71.2386 102.601 71.033C102.04 70.8933 102 70.9195 102.271 71.2451C102.467 71.478 102.972 71.6165 103.631 71.6165C104.207 71.6165 104.679 71.7258 104.679 71.8601C104.679 72.2647 105.888 72.6159 106.252 72.3164C106.662 71.9789 106.238 70.9735 105.601 70.7733C104.672 70.4804 105.299 69.4774 106.412 69.4774C109.065 69.4774 112.084 73.2023 109.97 73.8678C108.982 74.1791 108.366 75.8678 108.787 77.1144C109.126 78.1203 110.115 79.4596 110.519 79.4596C111.029 79.4596 111.849 80.5035 112.019 81.3722L112.18 82.1928L111.165 80.9284C109.601 78.9777 108.075 78.475 105.625 79.1025C104.9 79.2884 104.44 78.5463 104.44 77.1904C104.44 76.7394 104.332 76.3699 104.2 76.3699C103.797 76.3699 103.934 78.2367 104.405 79.172C104.65 79.6568 104.921 80.4209 105.007 80.8701C105.191 81.8232 105.778 82.5493 106.365 82.5493C107.047 82.5493 107.07 81.7014 106.415 80.7454C105.834 79.8969 105.827 79.8464 106.248 79.541C107.532 78.6093 109.658 79.664 111.125 81.9593C112.175 83.6028 112.113 84.3847 110.943 84.2254C107.996 83.8238 105.643 86.8202 107.075 89.1506C107.339 89.5784 107.554 90.1684 107.554 90.4613C107.554 91.8719 109.065 93.759 110.907 94.6497L112.225 95.2866L112.171 97.2379C112.132 98.7097 111.934 99.7186 111.368 101.341C110.679 103.315 110.591 104.13 111.126 103.567C111.786 102.874 113.286 97.9295 113.298 96.4078C113.305 95.5659 113.717 95.5415 114.975 96.3092C116.312 97.125 116.511 97.0121 116.297 95.5611C116.202 94.92 116.276 94.1951 116.5 93.5736C116.773 92.8125 116.797 92.3437 116.607 91.4583C116.439 90.6782 116.44 90.0519 116.611 89.4655C117.309 87.0686 116.074 84.6111 113.995 84.2593L112.943 84.0816L112.761 82.4471C112.54 80.4732 112.522 80.4958 113.952 80.9587C115.731 81.535 117.369 81.6705 118.572 81.3407C119.795 81.0056 122.019 80.9468 122.824 81.2278C123.309 81.3972 123.363 81.3413 123.363 80.6699C123.363 78.2255 121.414 75.5422 119.007 74.6711C117.975 74.298 117.497 73.9605 117.051 73.2902C116.219 72.0431 114.843 71.664 113.058 72.1904C111.348 72.6943 111.386 72.7085 111.386 71.5552C111.386 70.0508 111.75 69.0621 112.589 68.2843C113.121 67.7912 113.327 67.396 113.296 66.9284C113.22 65.7995 113.277 65.6973 114.251 65.2041C115.429 64.6076 115.865 64.5986 116.047 65.1679C116.303 65.9694 117.037 66.456 117.566 66.1756C118.272 65.8007 118.36 65.2974 117.834 64.6343L117.362 64.0389L118.386 63.5868C118.949 63.3384 120.048 62.6901 120.827 62.1471C122.408 61.0449 123.339 60.8981 124.081 61.6343C124.345 61.8957 124.56 62.0193 124.56 61.9088C124.56 60.7656 122.256 60.6266 120.728 61.6777ZM78.1981 70.6658C78.1981 74.7834 78.231 76.4679 78.2705 74.4091C78.3107 72.3503 78.3107 68.9813 78.2705 66.9225C78.231 64.8636 78.1981 66.5481 78.1981 70.6658ZM90.7333 70.8963C90.7956 77.7555 90.7722 78.2421 90.374 78.358C90.0321 78.4572 90.0423 78.4721 90.4273 78.4328C90.9273 78.3817 91.3345 64.2225 90.8501 63.7412C90.7495 63.6408 90.6968 66.8607 90.7333 70.8963ZM42.641 64.011C42.641 64.5392 42.6877 64.6117 43.1344 64.7757C43.4333 64.8856 43.5991 65.1696 43.5991 65.5737C43.5991 66.0478 43.5069 66.1655 43.2201 66.0567C43.0117 65.9771 42.4997 65.9106 42.0823 65.9088C41.0529 65.904 40.4613 65.5303 40.9643 65.2029C41.4404 64.8928 40.6517 64.8613 40.0505 65.1661C39.8283 65.279 39.2427 65.4323 38.7486 65.5077L37.851 65.645L38.2696 65.0752C39.0055 64.0752 42.641 63.1899 42.641 64.011ZM108.975 64.9373C110.49 66.1269 109.695 66.5315 107.777 65.5475C106.864 65.0793 105.986 65.0781 106.835 65.5464L107.434 65.8767L106.729 66.1435C105.624 66.5624 104.32 66.3729 104.32 65.7935C104.32 65.4216 104.528 65.2867 105.278 65.1738C105.985 65.0669 106.064 65.0205 105.578 64.9956C104.828 64.9569 104.721 64.6283 105.338 64.26C106.042 63.8399 108.056 64.2154 108.975 64.9373ZM30.9561 65.0051C30.5902 65.3681 30.3202 65.1001 30.5232 64.5755C30.6429 64.2659 30.7465 64.235 30.9597 64.4465C31.1729 64.6581 31.1717 64.7912 30.9561 65.0051ZM38.0899 64.4115C38.0899 64.7638 37.0234 65.6747 36.6108 65.6747C36.0402 65.6747 36.0563 65.3158 36.6528 64.724C37.1061 64.2742 38.0899 64.0603 38.0899 64.4115ZM111.129 65.1019C111.89 65.7383 111.91 66.15 111.177 66.15C110.592 66.15 109.325 64.8185 109.75 64.6503C110.284 64.4382 110.366 64.465 111.129 65.1019ZM69.0498 65.5559C69.0522 66.0787 69.1013 66.2647 69.1588 65.9688C69.2163 65.6735 69.2139 65.2457 69.154 65.0181C69.0941 64.7912 69.0468 65.033 69.0498 65.5559ZM74.559 65.5559C74.5614 66.0787 74.6105 66.2647 74.668 65.9688C74.7255 65.6735 74.7231 65.2457 74.6632 65.0181C74.6033 64.7912 74.556 65.033 74.559 65.5559ZM117.342 65.4085C117.289 65.5594 117.123 65.5784 116.925 65.456C116.743 65.3443 116.674 65.1245 116.772 64.9676C116.982 64.6307 117.478 65.0146 117.342 65.4085ZM38.8828 66.2653C40.1104 66.7745 40.202 67.8137 39.0193 67.8137C38.6103 67.8137 37.1228 66.1922 37.4222 66.0728C37.9043 65.8809 37.9786 65.8904 38.8828 66.2653ZM37.3528 66.7656C38.2223 67.4911 38.2876 67.8137 37.5666 67.8137C36.9803 67.8137 35.9342 66.9492 35.9342 66.4649C35.9342 65.9658 36.5521 66.0966 37.3528 66.7656ZM40.9643 66.5065C41.3715 66.9932 40.7577 66.9985 40.1116 66.5143C39.6559 66.172 39.6571 66.1649 40.1565 66.1578C40.4367 66.1536 40.8002 66.3105 40.9643 66.5065ZM12.5159 67.1007C12.5159 67.5582 12.565 67.7454 12.6255 67.5166C12.6853 67.2879 12.6853 66.9136 12.6255 66.6848C12.565 66.456 12.5159 66.6432 12.5159 67.1007ZM107.559 66.9759C107.178 67.4317 106.835 67.4424 106.835 66.9991C106.835 66.8125 107.024 66.6188 107.254 66.5677C107.832 66.44 107.914 66.5511 107.559 66.9759ZM110.524 66.6848C110.229 67.3669 109.02 68.068 108.405 67.9147C107.611 67.7169 107.629 67.3122 108.452 66.8054C109.238 66.3218 110.719 66.2356 110.524 66.6848ZM35.9342 67.3598C35.9342 67.4709 35.7725 67.4994 35.5749 67.4245C35.3773 67.3491 35.2156 67.1257 35.2156 66.9272C35.2156 66.6343 35.2826 66.6224 35.5749 66.863C35.7725 67.0259 35.9342 67.2493 35.9342 67.3598ZM111.865 66.831C111.865 67.3307 110.831 68.2891 110.291 68.2891C109.513 68.2891 109.559 67.9819 110.447 67.2409C111.175 66.6319 111.865 66.4329 111.865 66.831ZM112.493 67.5309C112.286 67.7359 112.044 67.8327 111.957 67.746C111.727 67.5178 112.353 66.8405 112.634 67.0128C112.774 67.0983 112.717 67.3081 112.493 67.5309ZM0.0698853 68.2891C0.0698853 68.8773 0.116592 69.1179 0.17348 68.8238C0.230967 68.5297 0.230967 68.0484 0.17348 67.7543C0.116592 67.4602 0.0698853 67.7008 0.0698853 68.2891ZM135.4 69.5963C135.402 70.1191 135.451 70.3051 135.509 70.0092C135.566 69.7139 135.564 69.2861 135.504 69.0585C135.444 68.8316 135.397 69.0734 135.4 69.5963ZM12.2763 69.7151C12.2763 70.1726 12.3255 70.3598 12.3859 70.131C12.4458 69.9023 12.4458 69.5279 12.3859 69.2992C12.3255 69.0704 12.2763 69.2576 12.2763 69.7151ZM60.1866 72.0306C61.2076 72.0751 62.8783 72.0751 63.8993 72.0306C64.9203 71.986 64.085 71.9498 62.043 71.9498C60.001 71.9498 59.1656 71.986 60.1866 72.0306ZM35.4551 72.7596L36.0539 73.1364L35.4551 73.3033C34.9623 73.4406 34.9413 73.4762 35.3353 73.5036C36.0192 73.5505 34.3383 74.2558 33.479 74.2825C32.5268 74.3122 32.67 74.6105 33.7688 74.8874C34.6377 75.106 34.7497 75.0787 35.0922 74.56C35.5635 73.8458 36.1084 73.8309 36.2462 74.5279L36.3521 75.0627L36.5342 74.5148C36.8228 73.6432 37.8558 73.8999 38.4438 74.9896L38.9175 75.8672L38.4007 76.9224C37.7498 78.2516 36.4953 79.235 36.2521 78.6063C36.1102 78.2391 36.0725 78.2492 35.906 78.6961C35.594 79.5332 34.2521 80.0989 33.8556 79.5612C33.5754 79.1809 33.5389 79.1767 33.5389 79.5243C33.5389 80.8553 27.0955 80.7436 27.0644 79.412C27.0596 79.2237 26.9614 79.2659 26.8128 79.519C26.45 80.1369 25.2918 80.0941 25.626 79.475C25.9386 78.8951 25.9416 78.677 25.6344 78.8654C25.3325 79.0502 25.329 78.7121 25.6242 77.9414C25.8457 77.3627 27.12 76.4976 27.3763 76.7519C27.4458 76.8202 27.574 76.7626 27.6608 76.6236C27.7542 76.4732 27.6027 76.3699 27.2883 76.3699C26.7637 76.3699 26.7631 76.3639 27.2141 75.8612C27.7967 75.2112 29.3932 74.4804 30.2453 74.4738C30.7268 74.4697 30.904 74.3491 30.904 74.0252C30.904 73.2279 31.855 72.276 32.4927 72.4346C32.8233 72.5172 33.0598 72.4709 33.0598 72.3229C33.0598 71.9795 34.6856 72.2754 35.4551 72.7596ZM58.0662 75.4192C58.0662 77.3146 58.1033 78.09 58.1488 77.1423C58.1943 76.1946 58.1943 74.6438 58.1488 73.6961C58.1033 72.7484 58.0662 73.5238 58.0662 75.4192ZM114.74 72.8327C114.74 72.9878 114.955 73.0419 115.258 72.9634C115.979 72.7763 116.562 73.1459 116.853 73.9741C117.045 74.5214 117.29 74.7133 117.955 74.8375C119.088 75.0478 120.967 76.2991 120.967 76.8422C120.967 77.0775 121.124 77.3294 121.316 77.4025C121.508 77.4756 121.885 77.9652 122.155 78.4905C122.521 79.2017 122.559 79.412 122.303 79.3152C122.047 79.2171 121.996 79.3187 122.1 79.7157C122.229 80.2017 122.177 80.2344 121.494 80.0989C121.082 80.0169 120.693 80.0359 120.629 80.1399C120.318 80.6384 117.803 80.9872 117.498 80.5742C117.131 80.0763 116.863 80.0496 117.048 80.5291C117.229 80.9955 115.305 81.0306 114.613 80.5731C114.353 80.4013 113.677 80.1274 113.11 79.9652C112.543 79.8036 112.025 79.5279 111.957 79.3538C111.889 79.1791 111.653 79.0781 111.431 79.1286C110.558 79.3271 109.229 77.5546 109.234 76.1999C109.241 74.6152 110.41 73.7561 111.231 74.7341C111.53 75.0918 111.65 75.15 111.556 74.8921C111.321 74.2475 111.748 74.1898 112.487 74.7662C112.86 75.0573 113.342 75.2659 113.558 75.2296C113.965 75.1613 115.135 76.1536 115.611 76.9712C115.851 77.3841 115.868 77.3592 115.758 76.7596C115.643 76.1369 115.68 76.0924 116.204 76.2362C116.734 76.3811 116.741 76.3722 116.297 76.1144C116.033 75.9617 115.548 75.6681 115.219 75.462L114.62 75.0876L115.219 74.9207C115.687 74.7899 115.58 74.7483 114.728 74.7299C113.176 74.6961 111.761 73.989 112.644 73.6883C112.808 73.6319 112.755 73.6141 112.524 73.6485C111.759 73.7626 111.831 73.2956 112.633 72.948C113.592 72.5327 114.74 72.4697 114.74 72.8327ZM147.912 125.211C147.912 154.231 147.94 166.067 147.974 151.514C148.009 136.961 148.009 113.218 147.974 98.7513C147.94 84.2849 147.912 96.1915 147.912 125.211ZM32.2214 75.3491C31.816 75.5665 31.6334 75.7787 31.8023 75.8345C31.9669 75.8892 32.1017 76.1637 32.1017 76.4447C32.1017 76.8701 32.2017 76.8095 32.7005 76.0811C33.5736 74.806 33.485 74.6699 32.2214 75.3491ZM28.9878 76.3473C28.9878 76.4655 28.5213 76.8339 27.9506 77.1655C26.8308 77.8167 25.7607 78.8363 26.7404 78.3188C27.0194 78.1708 27.3177 78.1191 27.4021 78.2029C27.4865 78.2873 27.8907 78.0157 28.3003 77.6004C28.7099 77.1851 29.1668 76.8416 29.3153 76.8375C30.0992 76.8161 30.522 76.1322 29.7519 76.1322C29.3315 76.1322 28.9878 76.229 28.9878 76.3473ZM111.931 77.5582C111.931 78.1464 111.977 78.3871 112.034 78.093C112.092 77.7988 112.092 77.3176 112.034 77.0234C111.977 76.7293 111.931 76.97 111.931 77.5582ZM117.723 76.828C117.798 76.9492 118.209 77.1643 118.636 77.3069C119.062 77.4489 119.626 77.8719 119.89 78.2469C120.295 78.8232 120.417 78.8773 120.681 78.5962C120.942 78.3187 120.87 78.1958 120.244 77.8517C119.832 77.6247 119.271 77.2522 118.997 77.0234C118.481 76.5927 117.481 76.4394 117.723 76.828ZM94.6059 78.6871L93.7807 79.5784L94.679 78.7596C95.5149 77.9967 95.6874 77.7959 95.5042 77.7959C95.4646 77.7959 95.0604 78.1969 94.6059 78.6871ZM41.9224 81.2421C41.7529 81.4447 41.5607 81.5564 41.4949 81.4911C41.429 81.4257 41.5134 81.207 41.6829 81.0044C41.8524 80.8018 42.0446 80.6901 42.1105 80.7555C42.1763 80.8208 42.0919 81.0395 41.9224 81.2421ZM106.114 81.3556C106.321 81.7388 106.3 81.8 106.002 81.6865C105.802 81.6105 105.637 81.399 105.637 81.2165C105.637 80.7525 105.817 80.8048 106.114 81.3556ZM48.8119 81.2914C49.1095 81.3484 49.5407 81.3461 49.77 81.2867C49.9988 81.2272 49.7551 81.1803 49.2281 81.1833C48.7011 81.1856 48.5137 81.2344 48.8119 81.2914ZM61.3872 81.2938C61.7519 81.3484 62.2909 81.3473 62.5849 81.2908C62.8795 81.2344 62.5819 81.1892 61.9232 81.191C61.2645 81.1928 61.0232 81.2391 61.3872 81.2938ZM73.4075 81.3817C73.0111 82.0187 74.156 82.0757 86.1301 82.0145L98.5713 81.9509L86.0559 81.8933C78.449 81.8588 73.5404 81.7489 73.5404 81.6129C73.5404 81.4899 73.9446 81.3479 74.4387 81.2962L75.3369 81.2029L74.453 81.1631C73.9668 81.1411 73.4961 81.2397 73.4075 81.3817ZM84.6289 81.2997C85.5235 81.3455 86.9248 81.3455 87.7428 81.2991C88.5602 81.2528 87.8284 81.2154 86.1158 81.2154C84.4031 81.216 83.7336 81.254 84.6289 81.2997ZM48.0083 81.6521C48.0993 82.0953 63.2915 82.0953 63.3825 81.6521C63.4167 81.4857 63.3897 81.459 63.3227 81.5927C63.243 81.7513 60.5818 81.8363 55.6954 81.8363C50.809 81.8363 48.1478 81.7513 48.0682 81.5927C48.0017 81.459 47.9748 81.4857 48.0083 81.6521ZM34.4395 84.601C35.0557 84.765 35.4174 85.7715 35.0066 86.1791C34.6724 86.5106 34.6497 86.9087 34.976 86.7085C35.5773 86.3401 34.9653 89.2456 34.2754 90.0359C34.0473 90.2973 33.8484 90.759 33.8335 91.0614C33.8029 91.6675 32.673 93.7198 32.3694 93.7198C31.7807 93.7198 31.4382 91.8737 31.9879 91.6645C32.2502 91.5647 32.2831 91.4411 32.1047 91.2284C31.9681 91.065 31.8819 90.7299 31.913 90.4833C31.9436 90.2373 31.8813 89.2718 31.7741 88.3377C31.4633 85.6313 32.5556 84.1001 34.4395 84.601ZM38.766 84.8166C40.708 85.3888 41.4044 87.6497 39.9894 88.7893C39.6098 89.0947 39.505 89.3787 39.5966 89.8529C39.7613 90.7079 38.9516 92.2937 38.3504 92.2937C38.0827 92.2937 37.8468 92.5136 37.7642 92.8404C37.4594 94.0442 34.4646 94.6972 34.0047 93.6604C33.7748 93.1428 33.7712 93.1446 33.8826 93.7216C34.0299 94.4833 33.8167 94.7964 33.0209 94.9895C32.2376 95.1797 32.3436 94.3977 33.2394 93.3787C33.5359 93.0412 33.7796 92.6324 33.7808 92.4702C33.782 92.308 34.0479 91.6402 34.3718 90.9866C34.6958 90.333 34.9647 89.6111 34.9683 89.3823C34.9772 88.8957 35.2395 88.8475 35.6533 89.2581C35.8857 89.4887 35.8893 89.3853 35.6719 88.7661C35.5084 88.3003 35.4629 87.5308 35.5593 86.8701C35.6485 86.2581 35.7557 85.4904 35.797 85.1636C35.8384 84.8368 35.8863 84.5427 35.903 84.5101C36.0012 84.3211 37.7025 84.5035 38.766 84.8166ZM112.105 85.0858C112.105 85.1731 111.926 85.4405 111.708 85.68C111.363 86.0591 111.359 86.1143 111.68 86.1143C111.883 86.1143 112.108 86.3389 112.18 86.6134C112.253 86.8879 112.415 87.0496 112.541 86.9729C112.667 86.8957 112.902 86.9919 113.065 87.1862C113.228 87.3811 113.461 87.5403 113.582 87.5403C113.704 87.5403 113.529 87.2682 113.193 86.9355C111.793 85.5457 113.476 84.1215 115.146 85.2825C116.286 86.0745 116.695 88.9242 115.621 88.5855C115.141 88.4346 115.138 88.4453 115.549 88.8529C115.876 89.1767 115.964 89.5932 115.919 90.6075C115.888 91.3389 115.945 92.1262 116.046 92.3573C116.244 92.8053 115.78 94.1951 115.434 94.1951C115.321 94.1951 114.991 93.7406 114.702 93.185C114.194 92.2118 114.169 92.1963 114.016 92.7691C113.832 93.456 113.993 93.9105 114.267 93.4726C114.471 93.1446 115.219 94.3561 115.219 95.0151C115.219 95.529 114.325 95.4797 113.99 94.9473C113.807 94.6562 113.525 94.5475 113.142 94.6199C111.991 94.838 109.411 93.4399 109.804 92.8107C109.881 92.6865 109.764 92.5998 109.545 92.6176C108.887 92.6717 107.976 91.1214 108.144 90.2337C108.258 89.6318 108.182 89.4055 107.768 89.1179C107.364 88.838 107.28 88.6021 107.388 88.0644C107.465 87.6835 107.43 87.2747 107.311 87.1565C106.957 86.8059 107.599 85.8481 108.508 85.3674C109.316 84.9402 112.105 84.7216 112.105 85.0858ZM55.1565 87.3027C55.2164 87.5219 55.5685 87.6723 56.0733 87.6925C56.8242 87.7234 56.8326 87.7168 56.1751 87.6117C55.7804 87.5487 55.3679 87.3734 55.2589 87.2219C55.1247 87.0359 55.0912 87.062 55.1565 87.3027ZM66.8935 87.229C67.124 87.2884 67.5013 87.2884 67.7318 87.229C67.9624 87.169 67.7737 87.1203 67.3126 87.1203C66.8515 87.1203 66.6629 87.169 66.8935 87.229ZM75.0375 87.3027C75.0974 87.5219 75.4495 87.6723 75.9543 87.6925C76.7052 87.7234 76.7136 87.7168 76.0561 87.6117C75.6615 87.5487 75.2489 87.3734 75.1399 87.2219C75.0058 87.0359 74.9722 87.062 75.0375 87.3027ZM61.9633 87.699C61.7418 87.9183 61.7609 101.509 61.9831 101.645C62.0819 101.706 62.1328 98.6146 62.0957 94.7756L62.0292 87.7958L64.2514 87.7174L66.4743 87.639L64.2987 87.5897C63.1017 87.5623 62.0508 87.6117 61.9633 87.699ZM82.83 87.7156C83.5264 87.7638 84.6043 87.7638 85.2253 87.7144C85.8469 87.6657 85.2774 87.6265 83.96 87.6271C82.6426 87.6277 82.1342 87.6675 82.83 87.7156ZM112.495 88.2029C111.961 89.0614 111.862 89.9937 112.353 89.5534C112.687 89.2522 112.823 89.2207 112.823 89.4447C112.823 89.617 112.869 89.7132 112.925 89.658C112.981 89.6027 112.949 89.1844 112.855 88.7281C112.743 88.1833 112.62 88.0032 112.495 88.2029ZM68.7498 88.5653C68.7498 88.6063 69.1001 88.9539 69.5283 89.3377L70.3068 90.0359L69.6031 89.2635C68.9474 88.5433 68.7498 88.3817 68.7498 88.5653ZM78.1945 94.6705C78.1945 97.7423 78.2286 98.999 78.2705 97.4631C78.3119 95.9271 78.3119 93.4138 78.2705 91.8778C78.2286 90.3419 78.1945 91.5986 78.1945 94.6705ZM58.5512 94.6705C58.5512 97.3502 58.5859 98.4464 58.6285 97.1066C58.6716 95.7667 58.6716 93.5742 58.6285 92.2343C58.5859 90.8945 58.5512 91.9907 58.5512 94.6705ZM113.063 90.3556C113.063 91.0561 113.638 91.6877 113.928 91.305C114.103 91.0739 114.017 90.8422 113.616 90.4601C113.126 89.9943 113.063 89.9824 113.063 90.3556ZM71.2236 94.7893C71.2248 95.7043 71.2679 96.0495 71.32 95.5564C71.3721 95.0632 71.3709 94.3145 71.3182 93.8927C71.2649 93.4708 71.2224 93.8743 71.2236 94.7893ZM91.3753 96.1125C91.2567 96.3027 91.2902 96.3472 91.4681 96.2379C91.6711 96.1137 91.7585 96.9117 91.7968 99.2313L91.8489 102.395L91.9238 99.324C91.9944 96.4512 91.816 95.4054 91.3753 96.1125ZM89.2147 99.9586L88.5111 100.731L89.2895 100.033C89.7177 99.6491 90.068 99.3015 90.068 99.2605C90.068 99.0769 89.8704 99.2385 89.2147 99.9586ZM65.6958 101.727C65.9264 101.786 66.3036 101.786 66.5342 101.727C66.7647 101.667 66.5761 101.618 66.115 101.618C65.6539 101.618 65.4653 101.667 65.6958 101.727ZM36.5929 107.208C40.0511 107.244 45.71 107.244 49.1682 107.208C52.6264 107.17 49.797 107.14 42.8805 107.14C35.9641 107.14 33.1347 107.17 36.5929 107.208ZM69.8714 107.184C69.6265 107.427 69.6744 107.98 69.9397 107.98C70.0678 107.98 70.1097 107.82 70.0343 107.623C69.9133 107.312 70.7295 107.267 76.5088 107.267C82.4533 107.267 83.7726 107.382 82.8761 107.824C82.7414 107.89 82.7683 107.917 82.936 107.883C83.1043 107.849 83.2414 107.67 83.2414 107.485C83.2414 107.125 70.2259 106.832 69.8714 107.184ZM88.5512 107.188C88.3093 107.427 88.3596 107.98 88.623 107.98C88.7512 107.98 88.7943 107.822 88.7195 107.629C88.6033 107.328 89.2464 107.268 93.2184 107.208L97.8528 107.137L93.2819 107.083C90.7674 107.054 88.6386 107.101 88.5512 107.188ZM55.3906 112.105C55.3397 116.49 55.3062 116.814 54.9169 116.666C54.581 116.539 54.557 116.567 54.7972 116.807C55.4601 117.47 55.5864 116.626 55.5158 112.003L55.4451 107.386L55.3906 112.105ZM47.2933 116.18C47.2939 118.925 47.3286 120.015 47.3711 118.603C47.4136 117.19 47.4131 114.944 47.3705 113.612C47.328 112.279 47.2933 113.435 47.2933 116.18ZM35.082 118.437C35.082 122.294 35.115 123.871 35.1551 121.943C35.1952 120.015 35.1952 116.86 35.1551 114.932C35.115 113.004 35.082 114.581 35.082 118.437ZM60.6447 112.862C60.2435 113.736 60.3201 113.923 60.7537 113.129C60.9567 112.757 61.0777 112.409 61.0226 112.355C60.9681 112.3 60.798 112.529 60.6447 112.862ZM100.167 113.1C99.766 113.974 99.8427 114.161 100.276 113.366C100.479 112.995 100.6 112.647 100.545 112.593C100.491 112.538 100.321 112.767 100.167 113.1ZM90.8255 113.575C90.4243 114.449 90.501 114.636 90.9345 113.842C91.1375 113.47 91.2585 113.122 91.2034 113.068C91.1489 113.013 90.9788 113.242 90.8255 113.575ZM47.1921 122.834C47.1921 124.027 46.9376 124.511 46.631 123.898C46.5639 123.764 46.537 123.791 46.5711 123.957C46.7951 125.057 47.4316 124.327 47.4316 122.97C47.4316 122.177 47.3777 121.527 47.3118 121.527C47.246 121.527 47.1921 122.115 47.1921 122.834ZM22.8199 138.559C22.6552 138.625 22.5205 138.884 22.5205 139.134C22.5205 139.582 23.4247 139.59 73.8853 139.59C126.526 139.59 126.35 139.593 125.15 138.722C124.712 138.404 23.6097 138.243 22.8199 138.559ZM48.2293 141.194C62.4352 141.228 85.6098 141.228 99.7283 141.194C113.847 141.161 102.224 141.133 73.8997 141.133C45.5753 141.133 34.0233 141.161 48.2293 141.194ZM34.6167 146.179C34.8802 146.244 35.2575 146.418 35.4551 146.568C35.7677 146.803 35.7713 146.785 35.4856 146.423C35.3048 146.194 34.9275 146.02 34.6473 146.035C34.1634 146.061 34.1616 146.068 34.6167 146.179ZM72.0901 147.611L71.2649 148.503L72.1631 147.684C72.9991 146.921 73.1715 146.72 72.9883 146.72C72.9488 146.72 72.5446 147.121 72.0901 147.611ZM31.4939 148.206L30.3052 149.453L31.5627 148.274C32.2544 147.625 32.8203 147.064 32.8203 147.026C32.8203 146.849 32.5981 147.046 31.4939 148.206ZM32.0933 148.562L30.7843 149.929L32.1616 148.63C33.4413 147.423 33.6484 147.196 33.4706 147.196C33.4335 147.196 32.8137 147.811 32.0933 148.562ZM72.5823 150.285C72.3009 150.677 72.1248 150.998 72.1907 150.998C72.2565 150.998 72.5404 150.677 72.8218 150.285C73.1033 149.893 73.2793 149.572 73.2135 149.572C73.1476 149.572 72.8638 149.893 72.5823 150.285ZM55.9092 150.8C55.8775 151.648 55.9469 151.647 56.2445 150.8C56.414 150.317 56.4038 150.127 56.208 150.127C56.0577 150.127 55.9236 150.43 55.9092 150.8ZM71.7493 152.181C71.5134 152.439 71.2397 152.601 71.1403 152.54C70.9643 152.432 70.2475 153.129 70.3666 153.292C70.3996 153.338 70.4157 153.455 70.4026 153.553C70.3894 153.651 70.2906 153.464 70.1828 153.137C70.002 152.589 69.9894 152.603 70.0181 153.316L70.0493 154.089L71.196 152.969C71.8266 152.352 72.3428 151.817 72.3428 151.78C72.3428 151.613 72.1464 151.746 71.7493 152.181ZM32.452 152.202C32.3652 152.34 32.0089 152.567 31.6591 152.705C31.2495 152.867 31.1394 152.998 31.3489 153.075C31.528 153.14 31.9568 152.914 32.3017 152.572C32.6466 152.229 32.8574 151.949 32.7694 151.949C32.6807 151.949 32.5382 152.062 32.452 152.202ZM100.253 153.132C100.018 153.39 99.7468 153.554 99.6522 153.496C99.557 153.437 99.2402 153.642 98.9474 153.951C97.9528 155.002 98.8456 154.786 99.8989 153.721C100.475 153.139 100.887 152.662 100.814 152.662C100.741 152.662 100.489 152.874 100.253 153.132ZM97.3623 153.635C97.1515 154.039 97.0216 154.412 97.0737 154.464C97.1258 154.515 97.3473 154.184 97.5665 153.729C98.0587 152.704 97.8881 152.625 97.3623 153.635ZM39.2367 155.039C39.2948 155.431 39.3834 155.752 39.4343 155.752C39.4852 155.752 39.5271 155.431 39.5271 155.039C39.5271 154.647 39.4379 154.326 39.3289 154.326C39.2199 154.326 39.1786 154.647 39.2367 155.039ZM49.3958 154.611C49.2377 154.768 49.1113 155.008 49.1155 155.146C49.1197 155.283 49.2401 155.195 49.3832 154.951C49.5934 154.592 49.6832 154.569 49.8515 154.832C50.015 155.088 50.0599 155.068 50.0629 154.742C50.0671 154.257 49.8036 154.206 49.3958 154.611ZM54.6451 154.841C54.6301 155.189 54.4828 155.528 54.3181 155.594C54.0834 155.688 54.0852 155.718 54.3259 155.733C54.7056 155.756 54.9349 155.209 54.7852 154.636C54.7097 154.347 54.6642 154.414 54.6451 154.841ZM77.7172 155.565C77.3304 155.984 77.2022 156.185 77.4328 156.011C77.6633 155.836 77.852 155.781 77.852 155.889C77.852 155.997 77.9813 155.956 78.1394 155.799C78.5376 155.404 78.7562 155.442 78.8843 155.93C78.967 156.243 79.0011 156.213 79.0221 155.811C79.0394 155.474 78.9119 155.276 78.6759 155.276C78.4706 155.276 78.3693 155.169 78.4508 155.039C78.7388 154.576 78.4119 154.811 77.7172 155.565ZM110.41 155.447C110.06 155.837 110.011 155.955 110.285 155.745C110.536 155.553 110.967 155.415 111.243 155.439C111.616 155.472 111.637 155.452 111.323 155.362C111.091 155.295 110.963 155.141 111.038 155.021C111.306 154.591 110.982 154.811 110.41 155.447ZM69.5241 155.752C69.5241 156.209 69.5732 156.396 69.6337 156.168C69.6936 155.939 69.6936 155.565 69.6337 155.336C69.5732 155.107 69.5241 155.294 69.5241 155.752ZM89.483 155.492C89.4093 155.61 89.5698 155.65 89.8399 155.58C90.1543 155.499 90.5417 155.65 90.9177 156L91.5052 156.547L91.5016 155.972C91.4992 155.578 91.4351 155.493 91.301 155.704C91.1435 155.95 91.0417 155.938 90.7962 155.644C90.4585 155.24 89.6949 155.152 89.483 155.492ZM74.8327 155.85C74.7608 156.036 74.7483 156.49 74.8039 156.86C74.8884 157.418 74.9117 157.379 74.9417 156.629C74.9632 156.093 75.0752 155.784 75.2171 155.871C75.3489 155.951 75.4567 155.904 75.4567 155.766C75.4567 155.395 74.9836 155.459 74.8327 155.85ZM83.8606 156.793L83.2827 157.534L83.9678 156.888C84.345 156.532 84.6049 156.199 84.5462 156.147C84.487 156.095 84.1786 156.386 83.8606 156.793ZM110.191 156.344C110.028 156.538 109.807 156.643 109.699 156.577C109.591 156.511 109.447 156.548 109.377 156.659C109.132 157.052 109.953 156.854 110.344 156.425C110.563 156.185 110.684 155.989 110.614 155.989C110.544 155.989 110.354 156.149 110.191 156.344ZM76.5908 156.906C76.3555 157.195 76.3561 157.232 76.5944 157.09C76.9765 156.863 76.9849 157.23 76.6064 157.606C76.4483 157.762 76.3872 157.891 76.4705 157.891C76.5537 157.891 76.8394 157.588 77.1052 157.218C77.6364 156.477 77.1705 156.196 76.5908 156.906ZM114.501 157.058C114.192 157.385 113.985 157.691 114.04 157.74C114.095 157.789 114.392 157.521 114.698 157.146C115.384 156.307 115.263 156.253 114.501 157.058ZM95.4706 157.876L94.5257 158.96L95.579 157.958C96.1581 157.407 96.5832 156.919 96.5234 156.874C96.4641 156.828 95.9904 157.279 95.4706 157.876ZM36.9935 157.505C37.0743 157.751 37.0037 158.125 36.8366 158.337C36.5785 158.665 36.5869 158.683 36.8923 158.455C37.5187 157.988 38.2822 157.847 38.3929 158.178C38.4576 158.371 38.4858 158.354 38.469 158.128C38.4546 157.929 38.1947 157.759 37.8809 157.744C37.5714 157.728 37.2127 157.568 37.0827 157.387C36.9049 157.139 36.8827 157.168 36.9935 157.505ZM100.465 157.469C100.5 157.635 100.72 157.809 100.955 157.854C101.221 157.906 101.321 157.837 101.218 157.672C101.127 157.527 100.962 157.464 100.851 157.532C100.74 157.6 100.593 157.546 100.526 157.411C100.459 157.276 100.431 157.302 100.465 157.469ZM108.287 157.446C108.266 157.992 108.89 158.482 109.126 158.103C109.24 157.921 109.203 157.879 109.026 157.988C108.859 158.091 108.659 157.94 108.525 157.609C108.379 157.247 108.297 157.191 108.287 157.446ZM83.348 158.307L82.5228 159.198L83.421 158.379C83.9151 157.928 84.3193 157.527 84.3193 157.488C84.3193 157.306 84.1169 157.477 83.348 158.307ZM92.0166 158.396C91.9986 158.74 92.1723 159.167 92.4034 159.347C92.7681 159.631 92.7867 159.627 92.546 159.317C92.3939 159.121 92.2202 158.693 92.1597 158.366L92.0495 157.772L92.0166 158.396ZM95.6742 158.425L95.2179 158.96L95.7359 158.526C96.2371 158.106 96.2575 158.106 96.3665 158.526C96.4575 158.875 96.485 158.855 96.5078 158.425C96.5228 158.131 96.4443 157.891 96.3329 157.891C96.2215 157.891 95.9251 158.131 95.6742 158.425ZM26.1817 159.198C26.1835 159.852 26.2302 160.091 26.2853 159.73C26.3404 159.368 26.3392 158.833 26.2823 158.541C26.2254 158.249 26.1799 158.544 26.1817 159.198ZM30.6645 159.673C30.0824 160.261 29.6603 160.743 29.7261 160.743C29.792 160.743 30.322 160.261 30.904 159.673C31.4861 159.085 31.9083 158.604 31.8424 158.604C31.7765 158.604 31.2466 159.085 30.6645 159.673ZM32.876 159.317C32.876 159.774 32.9251 159.961 32.9855 159.733C33.0454 159.504 33.0454 159.13 32.9855 158.901C32.9251 158.672 32.876 158.859 32.876 159.317ZM47.9107 159.054C47.9107 159.429 48.8281 159.834 49.4203 159.721C49.8682 159.634 49.8515 159.614 49.3053 159.587C48.952 159.569 48.4939 159.386 48.2873 159.181C48.0801 158.976 47.9107 158.918 47.9107 159.054ZM52.6282 159.443C52.2582 159.766 52.051 160.03 52.1671 160.03C52.2833 160.03 52.6312 159.762 52.9408 159.436C53.6564 158.68 53.4983 158.683 52.6282 159.443ZM85.0025 159.377C85.1235 159.497 85.4768 159.555 85.7888 159.506C86.2685 159.431 86.2343 159.398 85.569 159.288C85.0936 159.21 84.8696 159.245 85.0025 159.377ZM90.6028 159.792C90.6028 160.25 90.6519 160.437 90.7124 160.208C90.7722 159.979 90.7722 159.605 90.7124 159.376C90.6519 159.147 90.6028 159.335 90.6028 159.792ZM94.5514 159.225C94.47 159.306 94.0478 159.455 93.6131 159.557C92.9256 159.719 92.9023 159.746 93.4358 159.768C93.7723 159.781 94.2574 159.635 94.5137 159.443C94.7694 159.251 94.9155 159.091 94.8389 159.087C94.7616 159.083 94.6323 159.145 94.5514 159.225ZM68.3528 159.893C68.3738 160.285 68.5474 160.629 68.7498 160.683C68.9899 160.747 69.0181 160.714 68.8336 160.582C68.6827 160.475 68.5037 160.119 68.4366 159.792C68.3312 159.281 68.3199 159.294 68.3528 159.893ZM89.0794 160.208C88.7853 160.579 88.7925 160.591 89.1464 160.317C89.4698 160.066 89.565 160.066 89.6668 160.317C89.7452 160.512 89.7973 160.472 89.8093 160.208C89.8201 159.979 89.7339 159.792 89.6183 159.792C89.5027 159.792 89.2602 159.979 89.0794 160.208ZM39.3283 183.975C58.2554 184.008 89.2985 184.008 108.313 183.975C127.327 183.941 111.841 183.914 73.8997 183.914C35.9581 183.914 20.4006 183.941 39.3283 183.975Z" fill="#DAB041"/>
</svg>
